<svg id="Layer_1" data-name="Layer 1" xmlns="http://www.w3.org/2000/svg" viewBox="0 0 397.44 147.59"><defs><style>.cls-1{fill:#3f1403;}</style></defs><title>chocolate</title><path class="cls-1" d="M75.17,260.67V215.2H472.51a1.6,1.6,0,0,1,.07.8q0,22,0,43.9a1.2,1.2,0,0,1-.09.79h0a6.59,6.59,0,0,1-2.32,0,24.09,24.09,0,0,0-6.41-.11,34.88,34.88,0,0,0-9.4,2.45,17.29,17.29,0,0,0-3.44,1.85c-1.64,1.24-3.47,2.24-4.78,3.93-0.81,1-1.89,1.88-2.63,3a21.55,21.55,0,0,0-2.73,4.81,27.34,27.34,0,0,0-1.24,5.38,24.48,24.48,0,0,1-1.57,6.73,7.23,7.23,0,0,0-.4,1.5,46,46,0,0,1-.9,7.1,18.52,18.52,0,0,1-1.43,5.48,6.24,6.24,0,0,1-4.39,3.74,5.28,5.28,0,0,1-4.51-1.34c-1.87-1.54-2.46-3.67-2.68-6a29.27,29.27,0,0,1,.58-7.63,32.91,32.91,0,0,0,.51-10.22,8.08,8.08,0,0,0-5.66-7,10.45,10.45,0,0,0-5.33,0c-3.43.64-6.32,2.45-9.26,4.15-0.92.53-1.86,1-2.77,1.56-1.73.94-3.44,1.91-5.17,2.85a108.82,108.82,0,0,1-12,5.45,15.83,15.83,0,0,0-3.61,2.54,51.39,51.39,0,0,0-5.81,5.77,44.69,44.69,0,0,1-3.83,3.79,4.28,4.28,0,0,0-.59.66c-2.44,2-4.66,4.32-7,6.44-2.09,1.87-4.09,3.87-5.09,6.62a13,13,0,0,0-.91,5.84,8,8,0,0,1,0,1.53,19.35,19.35,0,0,0,.36,4.07c0.2,1.66.44,3.31,0.52,5a14.33,14.33,0,0,0,.29,2c0.17,0.88.09,1.77,0.22,2.65a24.34,24.34,0,0,1-.12,3.9c0,0.87,0,1.73.1,2.58a5.26,5.26,0,0,1-.06,1.66,23.19,23.19,0,0,0-.32,3.83,34.64,34.64,0,0,1-1.21,5.53c-0.25,1.08-.66,2.12-0.89,3.2-0.43,2.09-2,3.38-3.34,4.86a5.58,5.58,0,0,1-3.71,1.8,8.66,8.66,0,0,1-5.43-1.26,6.78,6.78,0,0,1-3-3.39,6.3,6.3,0,0,1-.58-3,10.47,10.47,0,0,0-.23-2.52,16.73,16.73,0,0,1,0-2.9,9.19,9.19,0,0,0,0-1.18,5.15,5.15,0,0,1,.1-1.89c0.47-1.48,1.26-2.86,1.33-4.48a20.45,20.45,0,0,1,.61-2.88c0.59-3.06,1.15-6.12,1.45-9.22,0.12-1.27.11-2.55,0.2-3.82a19.08,19.08,0,0,0,.13-5.08,46.17,46.17,0,0,1,0-5.18,23,23,0,0,0,0-2.37,5.86,5.86,0,0,1,0-.88c0.17-1.81.14-3.64,0.19-5.45a62.15,62.15,0,0,0-.29-6.34,45.46,45.46,0,0,0-1.15-5.86c-0.4-1.89-1.68-3.07-3.06-4.22a10.7,10.7,0,0,0-2.39-1.31c-2.25-1.06-4.35-2.44-6.61-3.48a1.86,1.86,0,0,1-.9-0.85,2.28,2.28,0,0,0-.78-0.82c-2.06-1.39-3.94-3-6.07-4.29a13.63,13.63,0,0,1-2.92-2.23c-1-1-2.06-1.75-3.1-2.62-1.24-1-2.68-1.82-3.89-2.92a11.51,11.51,0,0,0-2.38-1.56c-1.19-.56-2.26-1.31-3.48-1.81a6.54,6.54,0,0,0-2.66-.46,4,4,0,0,1-1.35-.25,10.48,10.48,0,0,0-5.36-.34c-1,.19-2,0.36-3.05.45a19,19,0,0,0-8.68,3.15c-2.63,2.16-5.51,4-8.29,5.92a42.35,42.35,0,0,1-6.2,3.38,9.83,9.83,0,0,1-2.23.74,41.38,41.38,0,0,0-7.17,2.18,6.21,6.21,0,0,0-4.22,5.92,11.54,11.54,0,0,1-1.08,4.35,5.79,5.79,0,0,0-.49,2.3,47.63,47.63,0,0,1-.4,5.29c-0.22,2.32-.45,4.66-0.44,7a13.33,13.33,0,0,1-1.17,6.19,7.5,7.5,0,0,1-4,3.89,5.16,5.16,0,0,1-5-.6,8.2,8.2,0,0,1-3.28-5.06,14.37,14.37,0,0,1-.32-4.34,11,11,0,0,0,0-2.37,15.34,15.34,0,0,1,.11-3.61,17.19,17.19,0,0,0-.14-4.64c-0.12-.69,0-1.38-0.1-2.07a16.57,16.57,0,0,0-.86-4.11,5.69,5.69,0,0,1-.14-1.24,6.45,6.45,0,0,0-2.08-4,11.07,11.07,0,0,0-2.73-1.9,50.69,50.69,0,0,0-6.95-2.72,45.8,45.8,0,0,0-4.63-1.28,13.86,13.86,0,0,0-5.79-.17c-0.46.1-.92,0.14-1.39,0.21a7.09,7.09,0,0,0-4.78,2.85,20.51,20.51,0,0,0-2.78,5.35c-0.52,1.44-1.13,2.84-1.78,4.23a8.63,8.63,0,0,1-4.43,4.37c-4.13,1.74-8.4-1.49-9.26-5.15a35.42,35.42,0,0,0-1.77-6,9,9,0,0,0-10.39-5.5,12.78,12.78,0,0,0-3.47,1,12.12,12.12,0,0,0-4.77,3.84,33.1,33.1,0,0,1-4.28,5.37,7.88,7.88,0,0,1-4.7,2.28,6.86,6.86,0,0,1-6.72-3.56c-1-1.66-1.62-3.54-2.59-5.23a21.68,21.68,0,0,0-9.36-9.33,9,9,0,0,0-2.08-.67,47.32,47.32,0,0,0-6.55-1.17,36,36,0,0,0-7,0c-0.71.09-1.43,0-2.14,0.1a82.17,82.17,0,0,1-8.41.45c-2.17-.09-4.34-0.23-6.51-0.14-4.26.18-8.09,1.45-11.11,4.63a20.8,20.8,0,0,0-4.65,8.64,13.3,13.3,0,0,1-4.94,7.46c-2.6,1.78-5.84,1.87-8.08-1a6.67,6.67,0,0,1-1-2.66,23.16,23.16,0,0,1-.51-5,43,43,0,0,0-.69-8.09C81.45,274.08,78.1,263.24,75.17,260.67Z" transform="translate(-75.17 -215.2)"/></svg>